<svg width="163" height="24" viewBox="0 0 163 24" fill="none" xmlns="http://www.w3.org/2000/svg">    <g clip-path="url(#clip0_318_6266)">        <path d="M31.549 9.95643H35.1048C36.2253 9.95643 36.8678 10.1215 37.3259 10.5244C37.3857 10.5778 37.4704 10.6069 37.56 10.6021C37.6447 10.6021 37.7293 10.5584 37.7841 10.5001L38.9644 9.19915C39.069 9.08264 39.059 8.91759 38.9395 8.81565C38.0431 8.05351 36.8976 7.72827 35.1048 7.72827H31.549C28.292 7.72827 26.3447 9.35934 26.3447 12.0972C26.3447 14.8351 28.292 16.4661 31.549 16.4661H35.1048C36.8827 16.4661 38.0281 16.1409 38.9395 15.3788C39.059 15.2768 39.074 15.1118 38.9694 14.9953L37.7891 13.6846C37.7343 13.6215 37.6546 13.5875 37.565 13.5826C37.4753 13.5778 37.3907 13.6069 37.3309 13.6603C36.8628 14.0729 36.2203 14.2428 35.1098 14.2428H31.554C29.9005 14.2428 28.9892 13.4807 28.9742 12.0875C28.9742 10.7137 29.8906 9.95157 31.554 9.95157L31.549 9.95643Z" fill="#001428"/>        <path d="M52.1815 7.80591H49.6117C49.5271 7.80591 49.4424 7.83989 49.3826 7.89814L45.7571 11.4467L42.1465 7.89814C42.0867 7.83989 42.0021 7.80591 41.9174 7.80591H39.3476C39.2231 7.80591 39.1136 7.87387 39.0638 7.97581C39.014 8.07775 39.0389 8.19911 39.1186 8.28164L44.4274 13.4515V16.1263C44.4274 16.2816 44.5668 16.4078 44.7362 16.4078H46.778C46.9523 16.4078 47.0868 16.2816 47.0868 16.1263V13.4515L52.3956 8.28164C52.4803 8.19911 52.5002 8.08261 52.4554 7.97581C52.4056 7.87387 52.296 7.80591 52.1715 7.80591H52.1815Z" fill="#001428"/>        <path d="M64.1393 12.0098C64.7519 11.6554 65.0507 11.0729 65.0507 10.2574C65.0507 9.136 64.4082 7.80591 61.3604 7.80591H53.422C53.2527 7.80591 53.1133 7.93212 53.1133 8.08746V16.1214C53.1133 16.2768 53.2527 16.403 53.422 16.403H61.7439C64.1244 16.403 65.4341 15.5244 65.4341 13.9273C65.4341 12.9952 64.9959 12.3545 64.1343 12.0098H64.1393ZM55.7328 13.0486H61.7538C62.8445 13.0486 62.8445 13.5098 62.8445 13.7088C62.8445 14.0195 62.7598 14.3545 61.7538 14.3545H55.7328V13.0486ZM61.4052 11.0923H55.7328V9.85445H61.3654C62.456 9.85445 62.456 10.2816 62.456 10.4904C62.456 10.8059 62.3763 11.0923 61.4052 11.0923Z" fill="#001428"/>        <path d="M74.9009 7.73315H71.0363C67.7793 7.73315 65.832 9.36422 65.832 12.1021C65.832 14.84 67.7793 16.471 71.0363 16.471H74.9009C78.1579 16.471 80.1051 14.84 80.1051 12.0924C80.1051 9.3448 78.1579 7.73315 74.9009 7.73315ZM77.4806 12.0924V12.1021C77.4806 13.505 76.5891 14.2477 74.9009 14.2477H71.0363C69.348 14.2477 68.4566 13.505 68.4566 12.0924C68.4566 10.6798 69.348 9.95646 71.0363 9.95646H74.9009C76.5891 9.95646 77.4806 10.6943 77.4806 12.0924Z" fill="#001428"/>        <path d="M91.0065 13.5049C92.1369 13.0195 92.7296 12.1214 92.7296 10.8933V10.8836C92.7296 9.73309 92.1917 7.80591 88.5811 7.80591H81.0412C80.8719 7.80591 80.7324 7.93212 80.7324 8.08746V16.1214C80.7324 16.2768 80.8719 16.403 81.0412 16.403H83.0332C83.2026 16.403 83.342 16.2768 83.342 16.1214V13.9176H88.4218L90.125 16.2768C90.1847 16.3545 90.2794 16.403 90.3839 16.403H92.63C92.7445 16.403 92.8541 16.3447 92.9039 16.2525C92.9587 16.1603 92.9487 16.0486 92.884 15.9612L90.9965 13.5098L91.0065 13.5049ZM90.105 10.8836V10.8933C90.105 11.369 89.9208 11.8059 88.5811 11.8059H83.342V9.97581H88.5811C89.9258 9.97581 90.105 10.4321 90.105 10.8787V10.8836Z" fill="#001428"/>        <path d="M106.211 11.5535H101.33C101.161 11.5535 101.022 11.6798 101.022 11.8351V13.2623C101.022 13.4176 101.161 13.5438 101.33 13.5438H104.164V13.5584C103.94 14.0244 103.243 14.2477 102.038 14.2477H98.4818C96.8085 14.2477 95.8921 13.4856 95.8921 12.0924C95.8921 10.3302 97.3314 9.95646 98.5366 9.95646H102.262C103.462 9.95646 104.114 10.1166 104.587 10.5293C104.652 10.5827 104.742 10.6069 104.822 10.6069C104.906 10.6069 104.986 10.5633 105.046 10.505L106.226 9.20403C106.33 9.08752 106.316 8.92247 106.201 8.82053C105.295 8.04869 104.154 7.73315 102.262 7.73315H98.5366C95.2397 7.73315 93.2676 9.36422 93.2676 12.1021C93.2676 14.84 95.1899 16.471 98.4071 16.471H101.953C103.168 16.471 104.05 16.2574 104.657 15.8108L104.697 16.1506C104.712 16.2914 104.846 16.4031 105.006 16.4031H106.211C106.38 16.4031 106.52 16.2768 106.52 16.1215V11.8351C106.52 11.6798 106.38 11.5535 106.211 11.5535Z" fill="#001428"/>        <path d="M115.235 7.80591H112.83V16.403H122.805V14.1748H115.235V7.80591Z" fill="#001428"/>        <path d="M131.481 7.73315H127.86C124.837 7.73315 123.029 9.36422 123.029 12.1021C123.029 14.84 124.837 16.471 127.86 16.471H131.481C134.504 16.471 136.311 14.84 136.311 12.0924C136.311 9.3448 134.504 7.73315 131.481 7.73315ZM133.941 12.1021C133.941 13.5487 133.089 14.3157 131.481 14.3157H127.86C126.251 14.3157 125.4 13.5487 125.4 12.0924C125.4 10.6361 126.251 9.89335 127.86 9.89335H131.481C133.089 9.89335 133.941 10.6555 133.941 12.1069V12.1021Z" fill="#001428"/>        <path d="M144.031 13.5147H146.979V13.5827C146.765 14.073 146.098 14.3157 144.937 14.3157H141.606C140.012 14.3157 139.13 13.5293 139.13 12.0924C139.13 10.6555 140.002 9.89338 141.655 9.89338H145.146C146.282 9.89338 146.904 10.0584 147.358 10.4856L147.547 10.6652L148.966 8.98076L148.797 8.82542C147.955 8.05357 146.899 7.73804 145.136 7.73804H141.645C138.583 7.73804 136.755 9.36911 136.755 12.107C136.755 14.8448 138.538 16.4759 141.526 16.4759H144.848C146.023 16.4759 146.855 16.2477 147.422 15.7672L147.492 16.4031H149.091V11.5973H144.026V13.5196L144.031 13.5147Z" fill="#001428"/>        <path d="M158.169 7.73315H154.549C151.526 7.73315 149.718 9.36422 149.718 12.1021C149.718 14.84 151.526 16.471 154.549 16.471H158.169C161.192 16.471 163 14.84 163 12.0924C163 9.3448 161.192 7.73315 158.169 7.73315ZM160.634 12.1021C160.634 13.5487 159.783 14.3157 158.174 14.3157H154.553C152.945 14.3157 152.093 13.5487 152.093 12.0924C152.093 10.6361 152.945 9.89335 154.553 9.89335H158.174C159.783 9.89335 160.634 10.6555 160.634 12.1069V12.1021Z" fill="#001428"/>        <path d="M20.8718 5.13133L12.1864 0.301229C11.4693 -0.096829 10.5828 -0.096829 9.86566 0.301229L1.23009 5.1022C0.502994 5.50997 0.0547816 6.25754 0.0498014 7.07307L0 16.874C0 17.6993 0.443232 18.4614 1.18029 18.8692L9.86566 23.6993C10.5828 24.0973 11.4693 24.0973 12.1864 23.6993L20.822 18.8983C21.5491 18.4905 21.9973 17.7381 22.0023 16.9226L22.0521 7.12162C22.0521 6.29637 21.6039 5.53424 20.8718 5.12647V5.13133ZM18.6307 14.1459C18.6307 14.3158 18.5361 14.4711 18.3867 14.5537L11.2651 18.5148C11.1157 18.5973 10.9364 18.5973 10.782 18.5148L3.64546 14.5731C3.49108 14.4857 3.39646 14.3304 3.40144 14.1556L3.4114 11.4226C3.4114 11.0585 3.81479 10.8304 4.1385 11.01L10.782 14.709C10.9314 14.7915 11.1157 14.7915 11.2651 14.709L17.9136 11.01C18.2423 10.8304 18.6456 11.0585 18.6407 11.4274L18.6307 14.141V14.1459Z" fill="#00DCC8"/>    </g>    <defs>        <clipPath id="clip0_318_6266">            <rect width="163" height="24" fill="white"/>        </clipPath>    </defs></svg>